# xmcd
#
# Track frame offsets:
# 150
# 16007
# 46135
# 70827
# 98167
# 112837
# 138157
# 158627
# 176382
# 197580
# 224490
#
# Disc length: 3254 seconds
#
#
# Revision: 0
# Processed by: cddbd v1.4PL0 Copyright (c) Steve Scherf et al.
# Submitted via: FreeRIP 2.35 
#
DISCID=840cb40b
DTITLE=Rich Pawling - Hammered IN IRON - Disk 2 of 2
DYEAR=2000
DGENRE=Folk
TTITLE0=E-R-I-E
TTITLE1=The Frozen Logger
TTITLE2=Gettin' Saved
TTITLE3=Take me out to the Ball Game
TTITLE4=Turning the pups loose
TTITLE5=Civil War Medley
TTITLE6=The March of the Mighty Ironmen
TTITLE7=The Johnstown Flood
TTITLE8=The big rock candy mountain
TTITLE9=The wreck of th 97
TTITLE10=The Ballad of Jesse James
EXTD=History Alive! Boys
EXTT0=
EXTT1=
EXTT2=
EXTT3=
EXTT4=
EXTT5=
EXTT6=
EXTT7=
EXTT8=
EXTT9=
EXTT10=
PLAYORDER=
